<svg width="248" height="61" viewBox="0 0 248 61" fill="none" xmlns="http://www.w3.org/2000/svg">
<path d="M0.316406 39.1211L0.914062 36.1328C3.36328 37.0703 6.11719 37.5391 9.17578 37.5391C13.5 37.5391 15.9785 35.957 16.6113 32.793C17.1504 30.0977 15.8262 28.75 12.6387 28.75H9.4043C4.14258 28.75 1.96875 26.4648 2.88281 21.8945C3.84375 17.0898 7.69336 14.6875 14.4316 14.6875C17.3613 14.6875 20.0156 15.0391 22.3945 15.7422L21.7969 18.7305C19.4648 17.793 16.834 17.3242 13.9043 17.3242C9.33398 17.3242 6.74414 18.8477 6.13477 21.8945C5.5957 24.5898 6.87305 25.9375 9.9668 25.9375H13.2012C18.5566 25.9375 20.7773 28.2227 19.8633 32.793C18.8789 37.7148 15.1406 40.1758 8.64844 40.1758C5.58984 40.1758 2.8125 39.8242 0.316406 39.1211ZM27.1055 18.5547H29.1445L29.25 21.543H34.2422L33.7148 24.1797H29.2324L27.1055 34.7793C26.7656 36.502 27.3398 37.3633 28.8281 37.3633H31.0781L30.5508 40H27.457C24.3633 40 23.1504 38.3418 23.8184 35.0254L27.1055 18.5547ZM49.3945 24.6719C48.8086 24.3906 47.6953 24.25 46.0547 24.25C42.1289 24.25 39.7207 26.4941 38.8301 30.9824C37.998 35.1191 38.7949 37.1875 41.2207 37.1875C43.7285 37.1875 45.9199 35.6992 47.7949 32.7227L49.3945 24.6719ZM49.5879 40H46.6875L47.2148 35.6055C45.2461 38.5352 42.8789 40 40.1133 40C35.918 40 34.418 37.0059 35.6133 31.0176C36.8789 24.7012 40.5879 21.543 46.7402 21.543C49.2363 21.543 51.3633 21.7949 53.1211 22.2988L49.5879 40ZM54.8789 40L58.5703 21.543H61.4707L60.6445 27.4141C62.7305 23.5 65.2031 21.543 68.0625 21.543L67.4824 24.4258C64.6934 24.4258 62.2383 26.3184 60.1172 30.1035L58.1309 40H54.8789ZM71.6484 18.5547H73.6875L73.793 21.543H78.7852L78.2578 24.1797H73.7754L71.6484 34.7793C71.3086 36.502 71.8828 37.3633 73.3711 37.3633H75.6211L75.0938 40H72C68.9062 40 67.6934 38.3418 68.3613 35.0254L71.6484 18.5547ZM88.3828 40L93.4102 14.8633H96.6621L107.93 35.4121L112.043 14.8633H115.119L110.092 40H106.84L95.625 19.0996L91.459 40H88.3828ZM119.971 30.7012C119.08 35.1426 120.363 37.3633 123.82 37.3633C127.277 37.3633 129.451 35.1426 130.342 30.7012C131.209 26.3535 129.914 24.1797 126.457 24.1797C123 24.1797 120.838 26.3535 119.971 30.7012ZM116.701 30.7715C117.932 24.6191 121.359 21.543 126.984 21.543C132.609 21.543 134.807 24.6191 133.576 30.7715C132.346 36.9121 128.918 39.9824 123.293 39.9824C117.691 39.9824 115.494 36.9121 116.701 30.7715ZM141.047 21.543H144.299C142.6 24.1797 141.428 27.1094 140.783 30.332C139.846 35.0195 140.637 37.3633 143.156 37.3633C145.793 37.3633 147.58 35.0195 148.518 30.332L150.275 21.543H153.527L151.77 30.332C150.832 35.0195 151.682 37.3633 154.318 37.3633C156.838 37.3633 158.566 35.0195 159.504 30.332C160.148 27.1094 160.148 24.1797 159.504 21.543H162.756C163.4 24.1797 163.4 27.1094 162.756 30.332C161.467 36.7773 158.479 40 153.791 40C151.037 40 149.467 38.4824 149.08 35.4473C147.533 38.4824 145.383 40 142.629 40C137.941 40 136.242 36.7773 137.531 30.332C138.176 27.1094 139.348 24.1797 141.047 21.543Z" fill="white"/>
<path d="M188 30.5H236" stroke="white" stroke-width="2" stroke-linecap="round" stroke-linejoin="round"/>
<path d="M218 15.25L236 30.5L218 45.75" stroke="white" stroke-width="2" stroke-linecap="round" stroke-linejoin="round"/>
</svg>
